<svg width="318" height="237" fill="none" xmlns="http://www.w3.org/2000/svg">
  <path d="M38.104 211.5c-4.574-47.266 16.824-70.437 29.665-77.129 1.196-.623 2.53-.871 3.879-.871h26.254c1.45 0 2.895.299 4.174.982 25.181 13.438 31.965 52.643 29.528 77.018-1 19-14.5 22.5-26.5 22.5h-40.5c-24.5-1-26.167-16.333-26.5-22.5Z" fill="#465048"/>
  <path d="M92.897 173.666c-2.105-1.058-5.3-2.047-8.289-2.036m-7.626 28.703c2.166.99 4.916 1.509 7.626 1.14m0-29.843c-3.601.014-6.9 1.482-7.626 6.036-.956 6.007 6.292 8.163 10.61 10.334 5.968 3 5.914 8.624 2.32 11.333-1.616 1.219-3.45 1.887-5.304 2.14m0-29.843V167m0 34.473V206" stroke="#fff" stroke-width="7" stroke-linecap="round"/>
  <rect x="66.603" y="122.5" width="35" height="8" rx="4" stroke="#465048" stroke-width="5"/>
  <rect x="128.896" y="54" width="60" height="12" rx="6" fill="#465048"/>
  <path d="m69.603 116.5-11-20M99.603 116.5 110.105 96M58.103 96c3.334.667 10.7.9 13.5-3.5 2.8-4.4 6.5-3.167 8-2l4.5 4M110.104 95.598c-3.334.666-10.7.9-13.5-3.5-2.8-4.4-6.5-3.167-8-2l-4.5 4.402M132.604 51l-18.5-35.5M186.104 51l18-36M114.104 15.363c5.769 1.148 18.519 1.55 23.365-6.028 4.846-7.578 11.25-5.454 13.846-3.445l7.789 6.89M204.104 14.363c-5.77 1.148-18.52 1.55-23.366-6.028-4.846-7.578-11.25-5.454-13.846-3.445l-7.788 7.582" stroke="#465048" stroke-width="5" stroke-linecap="round"/>
  <rect x="4.286" y="226.904" width="47.294" height="11.8" rx="5.9" transform="rotate(-61.52 4.286 226.904)" stroke="#465048" stroke-width="5"/>
  <rect x="208.604" y="188.5" width="47.294" height="11.8" rx="5.9" stroke="#465048" stroke-width="5"/>
  <rect x="215.604" y="205.5" width="47.294" height="11.8" rx="5.9" stroke="#465048" stroke-width="5"/>
  <rect x="208.604" y="222.5" width="47.294" height="11.8" rx="5.9" stroke="#465048" stroke-width="5"/>
  <rect x="259.604" y="222.5" width="47.294" height="11.8" rx="5.9" stroke="#465048" stroke-width="5"/>
  <rect x="267.604" y="207.5" width="47.294" height="11.8" rx="5.9" stroke="#465048" stroke-width="5"/>
  <rect x="260.604" y="191.5" width="47.294" height="11.8" rx="5.9" stroke="#465048" stroke-width="5"/>
  <rect x="251.604" y="174.5" width="47.294" height="11.8" rx="5.9" stroke="#465048" stroke-width="5"/>
  <rect x="256.604" y="157.5" width="47.294" height="11.8" rx="5.9" stroke="#465048" stroke-width="5"/>
  <path d="M115.396 88c6-7.833 11.208-14.5 21.708-18h45c19.333 10.167 50.792 41 48.792 106.5M130.896 231h69.5" stroke="#465048" stroke-width="5" stroke-linecap="round"/>
  <path d="M172.103 134c-3.174-1.587-7.993-3.072-12.499-3.054m-11.501 43.053c3.266 1.485 7.414 2.265 11.501 1.711m0-44.764c-5.431.02-10.408 2.222-11.501 9.054-1.442 9.009 9.489 12.244 16 15.499 9.001 4.501 8.919 12.937 3.5 17.001-2.437 1.828-5.204 2.831-7.999 3.21m0-44.764V124m0 51.71v6.79" stroke="#465048" stroke-width="7" stroke-linecap="round"/>
</svg>